<svg xmlns="http://www.w3.org/2000/svg" viewBox="0 0 115.63 28.48"><defs><style>.cls-1{fill:#e97f1c;}</style></defs><g id="Слой_2" data-name="Слой 2"><g id="Слой_1-2" data-name="Слой 1"><g id="evgmed"><path d="M16.9,14.37l-12.83,0a3.11,3.11,0,0,0,1.29,1.79,7.81,7.81,0,0,0,5.36.91c2-.26,2.68-1.18,2.78-1.51h3.11a4.75,4.75,0,0,1-2.12,2.52c-1.87,1.27-5.31,1.69-8.66.82S1.16,15.64.94,14.07a5,5,0,0,1,.27-2.39c.55-1.44,3-4,7.47-4.1,3.38,0,6.31,1.28,7.52,3.51A5.69,5.69,0,0,1,16.9,14.37Zm-3.24-1.82a3.64,3.64,0,0,0-.38-.8c-1.52-2.53-5.41-2.44-7.19-1.5S4,12.55,4,12.55Z"/><path d="M32.09,7.75c-1.84,3.27-5.19,9.1-6.42,11.32H22.75c-2.11-3.73-4.31-7.27-6.58-11.32h3.18l4.86,8.91L29,7.75Z"/><path d="M47.91,11.42s.4-1.54-1.06-1.75a1.84,1.84,0,0,0-1.42.31c.19.19.36.4.36.4a4.25,4.25,0,0,1,.51.85,4,4,0,0,1,.27,2.52,4.42,4.42,0,0,1-2.22,2.67c-2.18,1.25-6,1.36-8.57.82a4.67,4.67,0,0,0-.82-.08c-1.42.08-1.57.83-.65,1.07a23.23,23.23,0,0,0,4.46.14,24.48,24.48,0,0,1,6.38.51,4.18,4.18,0,0,1,2.13,7c-2,2.07-5.45,2.52-7.13,2.58-3.85.13-6.27-.37-7.84-1.23a3.84,3.84,0,0,1-2-2.18c-.57-2.4,1.48-3.54,2.2-3.88a8.41,8.41,0,0,1,1.54-.57A3.7,3.7,0,0,1,33,20.4a2.56,2.56,0,0,1-1.4-.9,1.65,1.65,0,0,1,.14-2.12,4,4,0,0,1,2.07-.85,5.34,5.34,0,0,1-1.39-1,3.92,3.92,0,0,1-.47-4.92c1-1.76,3.51-3.06,7.1-3.06A9.11,9.11,0,0,1,44.47,9.1a2.31,2.31,0,0,1,.29.24,2.59,2.59,0,0,1,1.18-1.21c1.52-.78,4.76-.69,5.14,2.14a5.26,5.26,0,0,1,0,1.18Zm-15,12C33,25,35.58,26.19,39.1,26.19S45,24.9,45.28,23.52a2.09,2.09,0,0,0-1.79-2.43,20.42,20.42,0,0,0-4.39-.44,14.08,14.08,0,0,0-4.19.42A2.46,2.46,0,0,0,32.87,23.42ZM43.49,11.78a3,3,0,0,0-1.11-1.28,4.81,4.81,0,0,0-1.92-.77,6.75,6.75,0,0,0-4.72.67c-1.73,1.09-1.83,2.94-.59,4s5,1.17,6.81.55a2.36,2.36,0,0,0,1.74-1.7A2.46,2.46,0,0,0,43.49,11.78Z"/><path d="M80.31,14.7c0,2.17,0,2.23,0,4.4H77.38c0-2,0-2.68,0-4.66s-.37-3-1.49-3.85-3.72-1-5.3-.29a4.46,4.46,0,0,0-2.06,1.75,5.69,5.69,0,0,0-.79,3.25v3.8H64.81c0-2,0-2.69,0-4.65s-.38-3-1.48-3.86-3.29-1-5.12-.36A4.89,4.89,0,0,0,56,12a5.11,5.11,0,0,0-.79,2.77c-.05,1.73,0,2.56,0,4.29H52.3V7.79h2.84c0,1.13,0,2.33,0,3.47a6.44,6.44,0,0,1,1.94-2.51A7.05,7.05,0,0,1,61.2,7.6a7,7,0,0,1,4.48,1.46,4.88,4.88,0,0,1,1.72,2.55,7,7,0,0,1,2.25-2.85,7.79,7.79,0,0,1,8.6.3,5.88,5.88,0,0,1,2,4.53C80.29,14,80.32,14.44,80.31,14.7Z"/><path d="M97.46,14.37l-12.83,0a3.11,3.11,0,0,0,1.29,1.79,7.81,7.81,0,0,0,5.36.91c2-.26,2.67-1.18,2.78-1.51h3.11A4.81,4.81,0,0,1,95,18.05c-1.86,1.27-5.31,1.69-8.65.82s-4.68-3.23-4.9-4.8a4.8,4.8,0,0,1,.28-2.39c.54-1.44,3-4,7.46-4.1,3.39,0,6.31,1.28,7.53,3.51A5.69,5.69,0,0,1,97.46,14.37Zm-3.25-1.82a3.64,3.64,0,0,0-.38-.8c-1.52-2.53-5.4-2.44-7.18-1.5s-2.07,2.3-2.07,2.3Z"/><path d="M115.6,0l0,19.05h-2.86V16.88s-1.61,2-5.55,2.39c-4.42.38-9-1.78-9-5.88,0-4.41,4.5-6.33,9-5.87,4.08.41,5.55,3,5.55,3l0-10.5Zm-3.4,13.31c0-2-2.36-3.54-5-3.63-3.11-.13-5.92.89-5.88,3.7,0,2.58,2.69,3.74,5.88,3.58C110,16.82,112.2,15.32,112.2,13.31Z"/></g><g id="m"><path class="cls-1" d="M76.43,9.71c0-.1,0-.16-.07-.18s0,.53,0,1.45a3.52,3.52,0,0,1-.21,1.39,23.11,23.11,0,0,1-.64,2.94c-.19.54-.43,1.37-.71,2.48,0,.21,0,.44,0,.67a.79.79,0,0,1-.35.61.31.31,0,0,0,.14.24l-.11-.07a.26.26,0,0,1-.1-.07,1.68,1.68,0,0,1-.13.54,1.79,1.79,0,0,0-.12.53c0-.07-.07-.19-.14-.36,0,.15-.07.36-.12.64a4.63,4.63,0,0,1-.63,1.28,1.33,1.33,0,0,1-.21-.36,1.24,1.24,0,0,0-.39.85c-.33-.07-.35-.39-.07-.95v-.18h-.07l-.21.39c-.1,0-.24.12-.43.43s-.42.68-.5.78a.56.56,0,0,1,.08-.18.75.75,0,0,0,.07-.22A1.08,1.08,0,0,0,71.4,22a1.73,1.73,0,0,1-.21-.37v-.54l-.3.36c-.18.21-.26.38-.23.49a.74.74,0,0,0-.36.08c0-.17,0-.27,0-.29l-.07-.1a2.72,2.72,0,0,1,.28-.64V21c0-.5-.06-.75-.17-.75s-.07,0-.07.11c0-.26-.13-.69-.25-1.28a1.19,1.19,0,0,1-.16-.32,1.43,1.43,0,0,1-.13-.35.51.51,0,0,1,.08-.21,1.32,1.32,0,0,0,.07-.18v-.39a2.78,2.78,0,0,0,.28-.53v-.18h-.07c-.1,0-.19.08-.28.25l1.52-5.07-.07-.11s-.13.19-.32.5A11.76,11.76,0,0,0,71.15,10l0,0a.16.16,0,0,0-.2.12l-.09.3h-.42a2.35,2.35,0,0,0,.42-.53V9.64a2.08,2.08,0,0,0-.53,0,.77.77,0,0,0-.23.06,1,1,0,0,1-.23.05,4.4,4.4,0,0,0-1.38.67l.46.11q-.11,0-.81.39a.3.3,0,0,1,.07.28.56.56,0,0,0,0-.21,1.34,1.34,0,0,1-.39.75l-.11.17a.51.51,0,0,0,.25,0v.64l-.1.14a6.34,6.34,0,0,1-.29,1.51,6.06,6.06,0,0,0-.28,1.5,1.13,1.13,0,0,0,.42-.42.42.42,0,0,0,.08.14.54.54,0,0,0-.32.35.14.14,0,0,1,.07.11h-.11a3.83,3.83,0,0,0-.46.6.73.73,0,0,0,.32,0,5.85,5.85,0,0,1-.43.53.56.56,0,0,0-.17.5.13.13,0,0,0,.1,0s0,.1,0,.23-.07.2-.13.2-.09,0-.09,0c.15.14.22.14.22,0,0,.07,0,.19,0,.36v.35s-.07-.08-.14-.25c-.05.14-.11.37-.18.67a1,1,0,0,0-.32-.1c-.21,0-.33.15-.35.46a.87.87,0,0,0,.14.57,3.74,3.74,0,0,0-.67-.11c0-.14-.11-.37-.39-.67a.62.62,0,0,0-.39.6c0,.12,0,.19.14.21s-.06.05-.11,0l-.35.64a.89.89,0,0,0-.68-.42c-.23-.43-.44-.64-.63-.64a.28.28,0,0,0-.15,0c0-.19,0-.25-.14-.17a.52.52,0,0,0,.18-.36c0-.09-.11-.19-.32-.28v-.18s0-.09.12-.18a.48.48,0,0,0,.13-.35,1.46,1.46,0,0,0-.11-.5s0,.06.15.18a.16.16,0,0,0,.15-.09,4.59,4.59,0,0,0,.13-1l.18-.17c.4-1.14.76-2.26,1.1-3.37a5.56,5.56,0,0,0,.28-1.6,7.91,7.91,0,0,0-.36-1.42h.18a.19.19,0,0,0-.1-.17s-.07,0-.07.07S64,10.1,64,10a5.69,5.69,0,0,0,0,1,2.91,2.91,0,0,0,.08,1s-.09,0-.11,0a15.57,15.57,0,0,1-.43,2,10.94,10.94,0,0,1,.22-1.48c0-.07,0-.11-.15-.11V10.7c0-.24-.11-.59-.21-1.06,0,0,0,0,0,0h-.11a4.66,4.66,0,0,0-1,.6,4.82,4.82,0,0,1-1.3.71l-.18.09a.43.43,0,0,1-.21.09.16.16,0,0,1-.12,0,.28.28,0,0,0-.13,0,7.36,7.36,0,0,0-1,.92l-.08.25a3.79,3.79,0,0,0-.21,1,1.51,1.51,0,0,0-.07-.5,1.84,1.84,0,0,1-.18.28.81.81,0,0,0-.14.39A.44.44,0,0,0,58.5,13l-.21.29q-.18,1.31-.57,3.93a19.31,19.31,0,0,1-.82,3c-.11.14-.27.35-.46.64a1.75,1.75,0,0,0-.14.81.49.49,0,0,0-.39.25H55.7a1.77,1.77,0,0,1-.07-.39l-.07,0h-.11c-.05,0-.21.2-.5.61a1.25,1.25,0,0,1,0-.47l-.14-.14-.07,0-.18-.18c0,.09,0,.14-.07.14s-.12-.05-.21-.14a.68.68,0,0,0-.18-.14,1.06,1.06,0,0,0,0-.46.44.44,0,0,1,.27-.43.15.15,0,0,0-.07-.14c-.14,0-.27.17-.39.43a1,1,0,0,0-.11.67.45.45,0,0,1-.32.14,6.36,6.36,0,0,1,.25-.71,1.15,1.15,0,0,0,.11-.67.35.35,0,0,0,0,.14,1.54,1.54,0,0,1,0-.43c.1-.26.23-.67.39-1.24s.27-1.31.39-2a12.7,12.7,0,0,0,.32-2.37V10.56q0-.08-.09-.66c-.06-.39-.09-.61-.09-.65V7.08c0,.1.12.22.22.38a4.94,4.94,0,0,0,.42.58c0,.17.13.42.25.75l-.14-1.07a3.79,3.79,0,0,1,.28-.35,2.55,2.55,0,0,1,0-.57v.25a1,1,0,0,1,.18.11A2,2,0,0,0,56,6.41a.3.3,0,0,0,.11.18A2.81,2.81,0,0,1,56.51,6h.22a.12.12,0,0,1-.06.09.21.21,0,0,0-.05.13.49.49,0,0,0,.07.24,1.27,1.27,0,0,1,.09.2s.07.05.16.05q.08.25.21.6a1.7,1.7,0,0,0,0,.64h.07q0-.42.15-1.17c.21-.11.35-.15.42-.1.1.21.25.53.46,1,0,0,0,0,0-.07a1,1,0,0,0,0,.39,2.59,2.59,0,0,0,.18,1q.21,0,0-.18a.31.31,0,0,0,.18,0c.07,0,.1-.08.1-.24a.56.56,0,0,0,.07.14,1.43,1.43,0,0,0,.15-.18,5.6,5.6,0,0,0-.09-.67q-.09-.54-.09-.57c0-.64.2-.93.6-.89a1.43,1.43,0,0,0,.07.36.32.32,0,0,0-.18,0c-.23,0-.34.33-.31,1,0,0,0,.15,0,.31a3.15,3.15,0,0,1,0,.37H59a5.81,5.81,0,0,0,.91-.52l.93-.58c.34-.17.77-.37,1.32-.6L63,6.52A8.34,8.34,0,0,1,64.77,6s.08,0,.09,0,0,0,.09,0,.06,0,0-.07S65,6,65.06,6a3.47,3.47,0,0,1,.74.32c.07,0,0-.12-.07-.21a1.76,1.76,0,0,0,.64.35q.18,0,.18-.21c.54-.33,1.36-.79,2.44-1.38a5.79,5.79,0,0,1,2.63-.43,5,5,0,0,1,3.08,1,4.32,4.32,0,0,1,1.45,3.05A9.34,9.34,0,0,0,76.43,9.71ZM54.38,7.05l-.07.28h-.1l.07-.28Zm.14,1.35h-.1l-.07-.5h.1ZM54.6,9h-.11V8.71h.11Zm0,.25h-.1V9h.1Zm.07.92h-.1l-.08-.21.11,0Zm.92-3.75h-.1V6.23h.1Zm.15.56h-.11V6.8h.11Zm.17-.67h-.1V6.09h.1Zm.39,1.24a1.57,1.57,0,0,0,0-.27.88.88,0,0,1,0-.19.56.56,0,0,1-.07.32s0,.06,0,.32a.89.89,0,0,1,0-.29A.2.2,0,0,1,56.33,7.51Zm.92,1V8.36h-.1V8.5Zm.08,1.38V9.67h-.11v.21Zm.24,10.5-.14.5h-.07l.11-.5Zm0-14.29-.07.28h-.1l.07-.28Zm1,6.84h-.28v-.32a2.4,2.4,0,0,1,.28-.14Zm0-5.24h-.11L58.39,7h.11Zm.07,6.2v-.35h-.11v.35Zm.17-1.31v-.25h-.1v.25Zm.08.14-.07.18-.11,0,.07-.17Zm.31-6.45c-.07-.07-.11-.11-.14-.11-.31,0-.41,0-.32,0A.56.56,0,0,0,59,6C59.13,6,59.2,6.1,59.2,6.27Zm.5.28-.14.25-.11-.07.14-.21Zm.39,1h-.21v-.1h.21ZM62,7l0-.11L61,7.4v.07Zm-.32,2.9-.21.11V9.88l.21-.07Zm.46-.24,0-.07-.39.21v.07Zm.07,8.93-.35.21,0-.1.32-.18Zm.43-9.18,0-.07-.35.21,0,.07Zm.5,11.49h-.11v-.29h.11ZM63.53,9v-.1h-.18V9Zm.53.36,0,.1-.29-.14v-.1Zm2.7,8.72-.11,0-.14.29.1,0Zm.17-.25-.1,0-.07.14.1,0Zm.32-11.73-.07,0-.28.25.07.07Zm.18,10-.28.21a.71.71,0,0,1,.24-.35A.21.21,0,0,0,67.43,16.16ZM67.32,14h-.14v-.22h.14Zm.29.46a1.27,1.27,0,0,1-.07.53c-.07.07-.11.12-.11.14S67.49,14.93,67.61,14.46Zm0-.78v-.14h-.1v.14ZM67.75,12h-.11l-.07.43h.11Zm.18,1.85-.15.28-.07,0,.15-.28Zm.39-2.42a11.22,11.22,0,0,1-.08,1.39,5.23,5.23,0,0,0,0-1c-.11.12-.16.18-.14.18A1.18,1.18,0,0,1,68.32,11.44Zm.85-1,.07-.32.17.18A.38.38,0,0,1,69.17,10.45Zm1-.1-.35.1v-.21C69.81,10.31,69.92,10.35,70.16,10.35Zm0,10.91-.1.08-.14-.25.1,0Zm1-11.52L71,9.64l-.07.07.11.07Zm3.47,11.7-.18.5-.1,0,.21-.46Zm.14-2.62h-.1v-.43h.1Zm0,2.37h-.1V21h.1Zm.07-2.83v-.22h-.1v.22Zm.32,1.7H75v-.28h.14Zm.07-.82a2,2,0,0,0-.07.43v-.5C75.12,19.24,75.15,19.27,75.19,19.24Zm.29-.78-.15.46h-.07l.11-.46Zm.24-1.2-.24,1.06h-.11l.25-1.06ZM75.65,16l-.1.49h-.11l.14-.49Zm1-3.33v-.22h-.1v.22Zm.18-1.21h-.11l-.14.89h.07Zm.07-.64-.07.46h-.11l.07-.46Zm0-.46V9.28h-.11v1.1Z"/></g><g id="e"><path class="cls-1" d="M18.58,11.49a5.55,5.55,0,0,1-.71,1.27,9.56,9.56,0,0,1-1.35,1.55,4.54,4.54,0,0,1-1.49,1,18.22,18.22,0,0,1-5.14.92,2.1,2.1,0,0,1-1.77-.61l-.82-1.2a1.2,1.2,0,0,1-.32-.3.88.88,0,0,1-.17-.55l.32-.36a.4.4,0,0,0-.15,0,2.4,2.4,0,0,1,.25-.39.52.52,0,0,0,.18-.36.64.64,0,0,0-.07-.24l.21.17a1,1,0,0,0,.28-.3,4.11,4.11,0,0,1,.29-.33A1.48,1.48,0,0,1,8,11.31c.19.19.27.28.25.28a2.48,2.48,0,0,0,.18-.25.34.34,0,0,0,0-.28,2.82,2.82,0,0,0-1.6,1.38l-.92,1.85a.33.33,0,0,0,.21.07c-.16,0-.41.35-.74,1.2a16.12,16.12,0,0,0-.57,1.53A22.49,22.49,0,0,0,4,21a2.29,2.29,0,0,0-.11.53v.18a.12.12,0,0,0,.11.07l4.47-1.52a.56.56,0,0,1-.29.35L6,21.41a6.94,6.94,0,0,1-2,.53.3.3,0,0,0-.11.07v.32s0,0,.11,0a8,8,0,0,0,2.41-.78l-.1.18a.19.19,0,0,0,.21.21c.21,0,.32,0,.32,0a.46.46,0,0,0,.28.18,7,7,0,0,0,.76-.23,7.9,7.9,0,0,1,.76-.23.45.45,0,0,1,.18,0,.76.76,0,0,0,.21,0,2.64,2.64,0,0,0,.59-.3,3,3,0,0,1,.58-.3,1.06,1.06,0,0,1,.34.09,1.06,1.06,0,0,0,.3.09c.07,0,.57-.19,1.51-.55s1.52-.61,1.75-.73l-4,2q0,.15.21.15L6,24.11A2,2,0,0,0,7,24a.46.46,0,0,1,.07.21,6.79,6.79,0,0,0-1,.14.52.52,0,0,1-.25-.11.59.59,0,0,0-.25-.1,1.25,1.25,0,0,0-.57.21c-1,.21-1.5.32-1.59.32A1,1,0,0,1,3,24.52a1,1,0,0,0-.39-.2.37.37,0,0,0-.16,0l-.16,0a1.4,1.4,0,0,1-1.17-.81c-.26-.45-.52-.91-.78-1.39l.15.11a3.48,3.48,0,0,0-.29-.92.28.28,0,0,0-.07.32,3.57,3.57,0,0,1,.18.42.84.84,0,0,0-.06-.19c0-.11-.08-.16-.15-.16s-.07,0-.07.07a.66.66,0,0,1,0-.21,3.74,3.74,0,0,0,.25-1.14c.07-.61.12-1,.14-1.13s-.06-.11-.18-.11c.17-.73.31-1.29.43-1.67a8.64,8.64,0,0,1,.89-1.77,6.25,6.25,0,0,1,.21-1.06c.54-1.14,1.36-2.85,2.44-5.14A19.41,19.41,0,0,1,5.67,7,7.67,7.67,0,0,1,7.12,5.81a4.19,4.19,0,0,0,.82-.28c.43-.33.86-.65,1.31-1a2.34,2.34,0,0,1,1.21-.31,1.41,1.41,0,0,1,.71.17,1.06,1.06,0,0,0,.4.3,8.32,8.32,0,0,0,.87.38c.14.07.42.23.82.49A2.72,2.72,0,0,0,14,6c.49,0,.69,0,.6,0,.12.07.17.1.14.1s.13,0,.18-.14l.78,1c.12.24.22.46.32.67.23.43.46.64.67.64s.14-.06.14-.18a.1.1,0,0,0,.11.11l.18-.14v.67a.66.66,0,0,0,.28.5q0,.1-.18.21c.07.21.22.58.43,1.1a1.4,1.4,0,0,0,.14.92.24.24,0,0,0,.28-.28s-.13-.5-.39-1.42a.32.32,0,0,1,.18-.07A13.87,13.87,0,0,1,18.58,11.49ZM1.74,20.56v-.17H1.63v.17Zm3-5.7a.28.28,0,0,0-.24.14,17.4,17.4,0,0,0-1.67,6.34,1.83,1.83,0,0,0,.07.36.42.42,0,0,1,.29.07c0-.33.18-1.21.42-2.63a4.23,4.23,0,0,1,0-.6A5.1,5.1,0,0,1,4,17.37l.5-1.13a2.86,2.86,0,0,1,0-.46A8,8,0,0,0,4.78,14.86ZM3.26,22.05a.53.53,0,0,1-.14.39c-.07-.05-.11-.18-.11-.39ZM8.61,7.2C8,7.34,7.23,8,6.38,9.29A13,13,0,0,0,4.82,12.2,10.91,10.91,0,0,1,6.1,10.25a.43.43,0,0,1,0-.22C6.91,9.11,7.76,8.17,8.61,7.2Zm2,4.68c-.64,0-1.46,0-2.45,0a3.81,3.81,0,0,0-.35.42l.12,0,.16,0c.38,0,.59-.08.64-.24A10.16,10.16,0,0,0,10.6,11.88Zm-1.88-.11a.4.4,0,0,1-.14-.25c-.12.12-.2.18-.25.18A1,1,0,0,0,8.72,11.77Zm4.75-1.49c0-.07-.08-.19-.23-.37s-.27-.27-.34-.27l-.72.09a8.08,8.08,0,0,1-1,.09c.05.17.12.39.21.67.17,0,.25.11.25.25-.19,0-.33-.06-.42-.32L11,9.86A7.26,7.26,0,0,0,8.54,11.2c.12.26.22.39.29.39a15.6,15.6,0,0,0,3-.35c.08-.12.1-.18.08-.18a.45.45,0,0,0,.35.14c.23,0,.35-.07.35-.21L13,11A.72.72,0,0,0,13.47,10.28Zm4.08-4-.11.17-.07,0,.07-.18Z"/></g></g></g></svg>