<?xml version="1.0" encoding="utf-8"?>
<!-- Generator: Adobe Illustrator 21.1.0, SVG Export Plug-In . SVG Version: 6.00 Build 0)  -->
<svg version="1.1" id="Capa_1" xmlns="http://www.w3.org/2000/svg" xmlns:xlink="http://www.w3.org/1999/xlink" x="0px" y="0px"
	 viewBox="0 0 320 320" style="enable-background:new 0 0 320 320;" xml:space="preserve">
<style type="text/css">
	.st0{fill:#FFFFFF;}
</style>
<path class="st0" d="M295.8,146L39.8,2c-5-2.8-11-2.7-15.9,0.1C19,5.1,16,10.3,16,16v288c0,5.7,3,10.9,7.9,13.8
	c2.5,1.4,5.3,2.2,8.1,2.2c2.7,0,5.4-0.7,7.8-2l256-144c5-2.8,8.2-8.2,8.2-14S300.9,148.9,295.8,146z M178.5,164.2l-77.6,43.6
	c-0.7,0.4-1.6,0.6-2.4,0.6c-0.8,0-1.7-0.2-2.4-0.7c-1.5-0.9-2.4-2.5-2.4-4.2v-87.3c0-1.7,0.9-3.3,2.4-4.2c1.5-0.9,3.3-0.9,4.8,0
	l77.6,43.6c1.5,0.9,2.5,2.5,2.5,4.2S180,163.4,178.5,164.2z"/>
</svg>
